<?xml version="1.0" encoding="UTF-8" standalone="no" ?>
<!DOCTYPE svg PUBLIC "-//W3C//DTD SVG 1.1//EN" "http://www.w3.org/Graphics/SVG/1.1/DTD/svg11.dtd">
<svg xmlns="http://www.w3.org/2000/svg" xmlns:xlink="http://www.w3.org/1999/xlink" version="1.1" width="1207.2467" height="570.7673" viewBox="0 0 1207.2467 570.7673" xml:space="preserve">
<desc>Created with Fabric.js 4.6.0</desc>
<defs>
</defs>
<g transform="matrix(5.33 0 0 5.33 602.8 284.56)" id="iCFA40mdZ1ai3cmMoBgRh"  >
<g style="" vector-effect="non-scaling-stroke"   >
		<g transform="matrix(0.72 0 0 0.72 59.7 0)" id="ni5-dQHLoiWnGn_VWhQdw"  >
<path style="stroke: rgb(0,0,0); stroke-width: 0; stroke-dasharray: none; stroke-linecap: butt; stroke-dashoffset: 0; stroke-linejoin: miter; stroke-miterlimit: 4; fill: rgb(0,71,171); fill-rule: nonzero; opacity: 1;" vector-effect="non-scaling-stroke"  transform=" translate(0, 0)" d="M -57.17 -74.28484 C -57.00276 -74.28484 -56.83609 -74.28243 -56.670010000000005 -74.27764 L -56.670010000000005 -74.28484 L -0.005210000000005266 -74.28484 C -0.0034700000000052657 -74.28484 -0.001740000000005266 -74.28484 -5.265753111327598e-15 -74.28484 C 0.0017399999999947343 -74.28484 0.0034699999999947342 -74.28484 0.0052099999999947345 -74.28484 L 56.67 -74.28484 L 56.67 -74.27764 C 56.83609 -74.28243 57.00277 -74.28484 57.170010000000005 -74.28484 C 66.58648000000001 -74.28484 74.22884 -66.64249000000001 74.22884 -57.226020000000005 C 74.22884 -57.058780000000006 74.22643000000001 -56.892100000000006 74.22164000000001 -56.72601 L 74.22883 -56.72601 L 74.22883 -0.07527000000000328 C 74.22884 -0.06885000000000328 74.22884 -0.06244000000000328 74.22884 -0.056020000000003276 C 74.22884 -0.04960000000000327 74.22884 -0.043190000000003274 74.22883 -0.03677000000000327 L 74.22883 56.61398 L 74.22164000000001 56.61398 C 74.22643000000001 56.78006 74.22884 56.94674 74.22884 57.11398 C 74.22884 66.53045 66.58649 74.1728 57.170010000000005 74.1728 C 57.005880000000005 74.1728 56.842290000000006 74.17048 56.67927 74.16587 L 56.67927 74.28484999999999 L -56.67 74.28484999999999 C -56.67 74.28484999999999 -57.00277 74.28484999999999 -57.17 74.28484999999999 C -66.58647 74.28484999999999 -74.22882 66.53044999999999 -74.22882 57.11397999999999 C -74.22882 47.697509999999994 -66.58646999999999 40.05515999999999 -57.16999 40.05515999999999 C -57.00275 40.05515999999999 -56.836079999999995 40.057569999999984 -56.67 40.062359999999984 L -56.67 40.05515999999999 L 40.080420000000004 40.05515999999999 L 40.080420000000004 17.002809999999986 C 40.080420000000004 17.002809999999986 -57.002759999999995 17.002809999999986 -57.17 17.002809999999986 C -66.58647 17.002809999999986 -74.22883 9.360459999999986 -74.22883 -0.05601000000001477 C -74.22883 -0.22325000000001477 -74.22883 -56.726880000000016 -74.22883 -56.726880000000016 L -74.22166 -56.726880000000016 C -74.22643 -56.89268000000001 -74.22883 -57.05906000000002 -74.22883 -57.22601000000002 C -74.22883 -66.64248000000002 -66.58648 -74.28483000000001 -57.17 -74.28483000000001 z M 40.08041 -17.22689 L 40.08041 -40.16717 L -40.01831 -40.16717 L -40.01831 -17.226889999999997 z" stroke-linecap="round" />
</g>
		<g transform="matrix(1.01 0 0 1.01 -59.69 0.02)" id="pFu914bQ4ylkRR6rc4rVX"  >
<g style="" vector-effect="non-scaling-stroke"   >
		<g transform="matrix(1.07 0 0 1.07 -38.96 -38.96)" id="My5zKkgYsmxnz1tUOY87q"  >
<path style="stroke: rgb(0,0,0); stroke-width: 0; stroke-dasharray: none; stroke-linecap: butt; stroke-dashoffset: 0; stroke-linejoin: miter; stroke-miterlimit: 4; fill: rgb(0,71,171); fill-rule: nonzero; opacity: 1;" vector-effect="non-scaling-stroke"  transform=" translate(0, 0)" d="M 0 -12.95454 C 7.15091 -12.95454 12.95454 -7.15091 12.95454 0 C 12.95454 7.15091 7.1509 12.95454 0 12.95454 C -7.15091 12.95454 -12.95454 7.15091 -12.95454 0 C -12.95454 -7.15091 -7.1509 -12.95454 0 -12.95454 z" stroke-linecap="round" />
</g>
		<g transform="matrix(1.07 0 0 1.07 0.02 -38.92)" id="WlfkboIJZXyMDEym164Tj"  >
<path style="stroke: rgb(0,0,0); stroke-width: 0; stroke-dasharray: none; stroke-linecap: butt; stroke-dashoffset: 0; stroke-linejoin: miter; stroke-miterlimit: 4; fill: rgb(0,71,171); fill-rule: nonzero; opacity: 1;" vector-effect="non-scaling-stroke"  transform=" translate(0, 0)" d="M 0 -12.95454 C 7.15091 -12.95454 12.95454 -7.15091 12.95454 0 C 12.95454 7.15091 7.1509 12.95454 0 12.95454 C -7.15091 12.95454 -12.95454 7.15091 -12.95454 0 C -12.95454 -7.15091 -7.1509 -12.95454 0 -12.95454 z" stroke-linecap="round" />
</g>
		<g transform="matrix(1.07 0 0 1.07 39 -38.92)" id="QKfwlckc8QhuP_3b1LAr6"  >
<path style="stroke: rgb(0,0,0); stroke-width: 0; stroke-dasharray: none; stroke-linecap: butt; stroke-dashoffset: 0; stroke-linejoin: miter; stroke-miterlimit: 4; fill: rgb(0,71,171); fill-rule: nonzero; opacity: 1;" vector-effect="non-scaling-stroke"  transform=" translate(0, 0)" d="M 0 -12.95454 C 7.15091 -12.95454 12.95454 -7.15091 12.95454 0 C 12.95454 7.15091 7.1509 12.95454 0 12.95454 C -7.15091 12.95454 -12.95454 7.15091 -12.95454 0 C -12.95454 -7.15091 -7.1509 -12.95454 0 -12.95454 z" stroke-linecap="round" />
</g>
		<g transform="matrix(1.07 0 0 1.07 -38.96 0)" id="XbjXrVqHce529RJNipVQs"  >
<path style="stroke: rgb(0,0,0); stroke-width: 0; stroke-dasharray: none; stroke-linecap: butt; stroke-dashoffset: 0; stroke-linejoin: miter; stroke-miterlimit: 4; fill: rgb(0,71,171); fill-rule: nonzero; opacity: 1;" vector-effect="non-scaling-stroke"  transform=" translate(0, 0)" d="M 0 -12.95454 C 7.15091 -12.95454 12.95454 -7.15091 12.95454 0 C 12.95454 7.15091 7.1509 12.95454 0 12.95454 C -7.15091 12.95454 -12.95454 7.15091 -12.95454 0 C -12.95454 -7.15091 -7.1509 -12.95454 0 -12.95454 z" stroke-linecap="round" />
</g>
		<g transform="matrix(1.07 0 0 1.07 0.02 0.04)" id="carwY14Z7QzaMUxGzmSDk"  >
<path style="stroke: rgb(0,0,0); stroke-width: 0; stroke-dasharray: none; stroke-linecap: butt; stroke-dashoffset: 0; stroke-linejoin: miter; stroke-miterlimit: 4; fill: rgb(0,71,171); fill-rule: nonzero; opacity: 1;" vector-effect="non-scaling-stroke"  transform=" translate(0, 0)" d="M 0 -12.95454 C 7.15091 -12.95454 12.95454 -7.15091 12.95454 0 C 12.95454 7.15091 7.1509 12.95454 0 12.95454 C -7.15091 12.95454 -12.95454 7.15091 -12.95454 0 C -12.95454 -7.15091 -7.1509 -12.95454 0 -12.95454 z" stroke-linecap="round" />
</g>
		<g transform="matrix(1.07 0 0 1.07 39 0.04)" id="xSTN64IM75Os2lyBl5uhb"  >
<path style="stroke: rgb(0,0,0); stroke-width: 0; stroke-dasharray: none; stroke-linecap: butt; stroke-dashoffset: 0; stroke-linejoin: miter; stroke-miterlimit: 4; fill: rgb(0,71,171); fill-rule: nonzero; opacity: 1;" vector-effect="non-scaling-stroke"  transform=" translate(0, 0)" d="M 0 -12.95454 C 7.15091 -12.95454 12.95454 -7.15091 12.95454 0 C 12.95454 7.15091 7.1509 12.95454 0 12.95454 C -7.15091 12.95454 -12.95454 7.15091 -12.95454 0 C -12.95454 -7.15091 -7.1509 -12.95454 0 -12.95454 z" stroke-linecap="round" />
</g>
		<g transform="matrix(1.07 0 0 1.07 -38.96 38.96)" id="aWLEB6SxDesjrxtLqB6am"  >
<path style="stroke: rgb(0,0,0); stroke-width: 0; stroke-dasharray: none; stroke-linecap: butt; stroke-dashoffset: 0; stroke-linejoin: miter; stroke-miterlimit: 4; fill: rgb(0,71,171); fill-rule: nonzero; opacity: 1;" vector-effect="non-scaling-stroke"  transform=" translate(0, 0)" d="M 0 -12.95454 C 7.15091 -12.95454 12.95454 -7.15091 12.95454 0 C 12.95454 7.15091 7.1509 12.95454 0 12.95454 C -7.15091 12.95454 -12.95454 7.15091 -12.95454 0 C -12.95454 -7.15091 -7.1509 -12.95454 0 -12.95454 z" stroke-linecap="round" />
</g>
		<g transform="matrix(1.07 0 0 1.07 0.02 39)" id="g8EUwm4eknBavl48W3kZM"  >
<path style="stroke: rgb(0,0,0); stroke-width: 0; stroke-dasharray: none; stroke-linecap: butt; stroke-dashoffset: 0; stroke-linejoin: miter; stroke-miterlimit: 4; fill: rgb(0,71,171); fill-rule: nonzero; opacity: 1;" vector-effect="non-scaling-stroke"  transform=" translate(0, 0)" d="M 0 -12.95454 C 7.15091 -12.95454 12.95454 -7.15091 12.95454 0 C 12.95454 7.15091 7.1509 12.95454 0 12.95454 C -7.15091 12.95454 -12.95454 7.15091 -12.95454 0 C -12.95454 -7.15091 -7.1509 -12.95454 0 -12.95454 z" stroke-linecap="round" />
</g>
		<g transform="matrix(1.07 0 0 1.07 39 39)" id="EPFGD5IaqsGNc9zUo9Ucz"  >
<path style="stroke: rgb(0,0,0); stroke-width: 0; stroke-dasharray: none; stroke-linecap: butt; stroke-dashoffset: 0; stroke-linejoin: miter; stroke-miterlimit: 4; fill: rgb(0,71,171); fill-rule: nonzero; opacity: 1;" vector-effect="non-scaling-stroke"  transform=" translate(0, 0)" d="M 0 -12.95454 C 7.15091 -12.95454 12.95454 -7.15091 12.95454 0 C 12.95454 7.15091 7.1509 12.95454 0 12.95454 C -7.15091 12.95454 -12.95454 7.15091 -12.95454 0 C -12.95454 -7.15091 -7.1509 -12.95454 0 -12.95454 z" stroke-linecap="round" />
</g>
</g>
</g>
</g>
</g>
</svg>